<svg width="50" height="50" viewBox="0 0 100 100" fill="none" xmlns="http://www.w3.org/2000/svg">
<path fill-rule="evenodd" clip-rule="evenodd" d="M50 9.375C27.5625 9.375 9.375 27.5625 9.375 50C9.375 72.4375 27.5625 90.625 50 90.625C72.4375 90.625 90.625 72.4375 90.625 50C90.625 27.5625 72.4375 9.375 50 9.375ZM32.1667 47.7917C31.5815 48.3776 31.2527 49.1719 31.2527 50C31.2527 50.8281 31.5815 51.6224 32.1667 52.2083L44.6667 64.7083C44.9528 65.0154 45.2978 65.2616 45.6811 65.4324C46.0644 65.6032 46.4782 65.6951 46.8978 65.7025C47.3174 65.7099 47.7342 65.6327 48.1233 65.4755C48.5124 65.3183 48.8659 65.0844 49.1627 64.7877C49.4594 64.4909 49.6933 64.1374 49.8505 63.7483C50.0077 63.3592 50.0849 62.9424 50.0775 62.5228C50.0701 62.1032 49.9782 61.6894 49.8074 61.3061C49.6366 60.9228 49.3904 60.5778 49.0833 60.2917L41.9167 53.125H65.625C66.4538 53.125 67.2487 52.7958 67.8347 52.2097C68.4208 51.6237 68.75 50.8288 68.75 50C68.75 49.1712 68.4208 48.3763 67.8347 47.7903C67.2487 47.2042 66.4538 46.875 65.625 46.875H41.9167L49.0833 39.7083C49.6353 39.1159 49.9358 38.3324 49.9216 37.5228C49.9073 36.7132 49.5793 35.9408 49.0068 35.3682C48.4342 34.7957 47.6618 34.4677 46.8522 34.4534C46.0426 34.4392 45.2591 34.7397 44.6667 35.2917L32.1667 47.7917Z" fill="black"/>
</svg>
