<svg width="50" height="50" viewBox="0 0 100 100" fill="none" xmlns="http://www.w3.org/2000/svg">
<path fill-rule="evenodd" clip-rule="evenodd" d="M50 9.375C27.5625 9.375 9.375 27.5625 9.375 50C9.375 72.4375 27.5625 90.625 50 90.625C72.4375 90.625 90.625 72.4375 90.625 50C90.625 27.5625 72.4375 9.375 50 9.375ZM67.8333 52.2083C68.4185 51.6224 68.7472 50.8281 68.7472 50C68.7472 49.1719 68.4185 48.3776 67.8333 47.7917L55.3333 35.2917C55.0472 34.9846 54.7022 34.7384 54.3189 34.5676C53.9356 34.3968 53.5218 34.3049 53.1022 34.2975C52.6826 34.2901 52.2658 34.3673 51.8767 34.5245C51.4876 34.6817 51.1341 34.9156 50.8373 35.2123C50.5406 35.5091 50.3067 35.8626 50.1495 36.2517C49.9923 36.6408 49.9151 37.0576 49.9225 37.4772C49.9299 37.8968 50.0218 38.3106 50.1926 38.6939C50.3634 39.0772 50.6096 39.4222 50.9167 39.7083L58.0833 46.875H34.375C33.5462 46.875 32.7513 47.2042 32.1653 47.7903C31.5792 48.3763 31.25 49.1712 31.25 50C31.25 50.8288 31.5792 51.6237 32.1653 52.2097C32.7513 52.7958 33.5462 53.125 34.375 53.125H58.0833L50.9167 60.2917C50.6096 60.5778 50.3634 60.9228 50.1926 61.3061C50.0218 61.6894 49.9299 62.1032 49.9225 62.5228C49.9151 62.9424 49.9923 63.3592 50.1495 63.7483C50.3067 64.1374 50.5406 64.4909 50.8373 64.7877C51.1341 65.0844 51.4876 65.3183 51.8767 65.4755C52.2658 65.6327 52.6826 65.7099 53.1022 65.7025C53.5218 65.6951 53.9356 65.6032 54.3189 65.4324C54.7022 65.2616 55.0472 65.0154 55.3333 64.7083L67.8333 52.2083Z" fill="black"/>
</svg>
