<svg width="100" height="100" viewBox="0 0 100 100" fill="none" xmlns="http://www.w3.org/2000/svg">
<path fill-rule="evenodd" clip-rule="evenodd" d="M25.7714 3.15693e-07C22.7157 -0.000693357 19.7402 1.14179 17.2821 3.25965C14.824 5.37752 13.0127 8.35915 12.1143 11.7667L0.633333 55.3111C0.214112 56.8985 0.000642167 58.5501 0 60.2111V83.3333C0 87.7536 1.5051 91.9928 4.18419 95.1184C6.86328 98.2441 10.4969 100 14.2857 100H85.7143C89.5031 100 93.1367 98.2441 95.8158 95.1184C98.4949 91.9928 100 87.7536 100 83.3333V60.2111C100 58.55 99.7857 56.9 99.3667 55.3111L87.881 11.7667C86.9828 8.36006 85.1722 5.37908 82.7151 3.2613C80.2579 1.14352 77.2835 0.000494858 74.2286 3.15693e-07H25.7714ZM91.5952 54.1667L81.0571 14.2167C80.6079 12.5129 79.7023 11.0221 78.4732 9.96316C77.2442 8.90423 75.7565 8.33299 74.2286 8.33333H25.7714C24.2435 8.33299 22.7558 8.90423 21.5268 9.96316C20.2977 11.0221 19.3921 12.5129 18.9429 14.2167L8.40476 54.1667H21.9524C24.6058 54.1657 27.207 55.027 29.4645 56.6539C31.7219 58.2808 33.5464 60.6091 34.7333 63.3778L35.9524 66.2278C36.5459 67.6121 37.4581 68.7762 38.5868 69.5897C39.7155 70.4032 41.0161 70.8338 42.3429 70.8333H57.6667C58.9939 70.8333 60.2948 70.4018 61.4236 69.5873C62.5524 68.7729 63.4643 67.6076 64.0571 66.2222L65.2762 63.3778C66.4632 60.6091 68.2876 58.2808 70.5451 56.6539C72.8025 55.027 75.4037 54.1657 78.0571 54.1667H91.5952Z" fill="#E1A100"/>
</svg>
