<svg width="36" height="44" viewBox="0 0 36 44" fill="none" xmlns="http://www.w3.org/2000/svg">
<path fill-rule="evenodd" clip-rule="evenodd" d="M18 0.125C15.0992 0.125 12.3172 1.27734 10.266 3.32852C8.21484 5.3797 7.0625 8.16169 7.0625 11.0625V17.3125C5.4049 17.3125 3.81519 17.971 2.64308 19.1431C1.47098 20.3152 0.8125 21.9049 0.8125 23.5625V37.625C0.8125 39.2826 1.47098 40.8723 2.64308 42.0444C3.81519 43.2165 5.4049 43.875 7.0625 43.875H28.9375C30.5951 43.875 32.1848 43.2165 33.3569 42.0444C34.529 40.8723 35.1875 39.2826 35.1875 37.625V23.5625C35.1875 21.9049 34.529 20.3152 33.3569 19.1431C32.1848 17.971 30.5951 17.3125 28.9375 17.3125V11.0625C28.9375 5.02083 24.0417 0.125 18 0.125ZM25.8125 17.3125V11.0625C25.8125 8.9905 24.9894 7.00336 23.5243 5.53823C22.0591 4.0731 20.072 3.25 18 3.25C15.928 3.25 13.9409 4.0731 12.4757 5.53823C11.0106 7.00336 10.1875 8.9905 10.1875 11.0625V17.3125H25.8125Z" fill="#E1A100"/>
</svg>
