<svg  viewBox="0 0 36 32" fill="none" xmlns="http://www.w3.org/2000/svg">
<path fill-rule="evenodd" clip-rule="evenodd" d="M34.4918 0.637529C34.8365 0.8674 35.0758 1.2248 35.1571 1.63112C35.2384 2.03744 35.1549 2.45941 34.9251 2.8042L16.1751 30.9292C16.0468 31.1214 15.8775 31.2827 15.6793 31.4016C15.4812 31.5204 15.2591 31.5939 15.0292 31.6166C14.7992 31.6393 14.5671 31.6107 14.3495 31.5329C14.132 31.4551 13.9343 31.3301 13.7709 31.1667L1.27092 18.6667C0.99492 18.3705 0.844664 17.9787 0.851806 17.5739C0.858948 17.1691 1.02293 16.7829 1.30921 16.4967C1.59549 16.2104 1.9817 16.0464 2.3865 16.0392C2.79129 16.0321 3.18306 16.1824 3.47925 16.4584L14.6313 27.6104L32.3251 1.06878C32.5553 0.724356 32.9128 0.485447 33.3191 0.404578C33.7254 0.323709 34.1472 0.4075 34.4918 0.637529Z" fill="#E1A100"/>
</svg>
