<svg  viewBox="0 0 48 48" fill="none" xmlns="http://www.w3.org/2000/svg">
<path d="M29.3077 18.5V8M29.3077 18.5H39.9231M29.3077 18.5L43.4615 4.5M36.3846 46.5C16.8429 46.5 1 30.8293 1 11.5V6.25C1 4.85761 1.5592 3.52226 2.55459 2.53769C3.54997 1.55312 4.9 1 6.30769 1H9.54421C10.7614 1 11.823 1.819 12.1178 2.988L14.7269 13.3083C14.9864 14.335 14.5995 15.413 13.7432 16.0453L10.693 18.3087C10.2564 18.6213 9.93344 19.0648 9.77195 19.5734C9.61046 20.0821 9.61911 20.6286 9.79662 21.132C11.2164 24.9519 13.4587 28.421 16.3682 31.2988C19.2777 34.1767 22.7848 36.3946 26.6468 37.799C27.6871 38.177 28.8359 37.7897 29.5011 36.9123L31.7893 33.8953C32.1025 33.4818 32.5322 33.1688 33.0244 32.9957C33.5166 32.8227 34.0496 32.7971 34.5564 32.9223L44.9902 35.503C46.1696 35.7947 47 36.8447 47 38.0487V41.25C47 42.6424 46.4408 43.9777 45.4454 44.9623C44.45 45.9469 43.1 46.5 41.6923 46.5H36.3846Z" stroke="#E1A100" stroke-width="1.5" stroke-linecap="round" stroke-linejoin="round"/>
</svg>
