<svg width="150" height="24" viewBox="0 0 232 24" fill="none" xmlns="http://www.w3.org/2000/svg">
<path fill-rule="evenodd" clip-rule="evenodd" d="M10.788 3.21009C11.236 2.13309 12.764 2.13309 13.212 3.21009L15.294 8.21609L20.698 8.65009C21.862 8.74309 22.334 10.1951 21.447 10.9551L17.33 14.4821L18.587 19.7551C18.858 20.8911 17.623 21.7881 16.627 21.1801L12 18.3541L7.373 21.1801C6.377 21.7881 5.142 20.8901 5.413 19.7551L6.67 14.4821L2.553 10.9551C1.666 10.1951 2.138 8.74309 3.302 8.65009L8.706 8.21609L10.788 3.21009Z" fill="#E1A100"/>
<path fill-rule="evenodd" clip-rule="evenodd" d="M53.788 3.21009C54.236 2.13309 55.764 2.13309 56.212 3.21009L58.294 8.21609L63.698 8.65009C64.862 8.74309 65.334 10.1951 64.447 10.9551L60.33 14.4821L61.587 19.7551C61.858 20.8911 60.623 21.7881 59.627 21.1801L55 18.3541L50.373 21.1801C49.377 21.7881 48.142 20.8901 48.413 19.7551L49.67 14.4821L45.553 10.9551C44.666 10.1951 45.138 8.74309 46.302 8.65009L51.706 8.21609L53.788 3.21009Z" fill="#E1A100"/>
<path fill-rule="evenodd" clip-rule="evenodd" d="M100.788 3.21009C101.236 2.13309 102.764 2.13309 103.212 3.21009L105.294 8.21609L110.698 8.65009C111.862 8.74309 112.334 10.1951 111.447 10.9551L107.33 14.4821L108.587 19.7551C108.858 20.8911 107.623 21.7881 106.627 21.1801L102 18.3541L97.373 21.1801C96.377 21.7881 95.142 20.8901 95.413 19.7551L96.67 14.4821L92.553 10.9551C91.666 10.1951 92.138 8.74309 93.302 8.65009L98.706 8.21609L100.788 3.21009Z" fill="#E1A100"/>
<path fill-rule="evenodd" clip-rule="evenodd" d="M159.788 3.21009C160.236 2.13309 161.764 2.13309 162.212 3.21009L164.294 8.21609L169.698 8.65009C170.862 8.74309 171.334 10.1951 170.447 10.9551L166.33 14.4821L167.587 19.7551C167.858 20.8911 166.623 21.7881 165.627 21.1801L161 18.3541L156.373 21.1801C155.377 21.7881 154.142 20.8901 154.413 19.7551L155.67 14.4821L151.553 10.9551C150.666 10.1951 151.138 8.74309 152.302 8.65009L157.706 8.21609L159.788 3.21009Z" fill="#E1A100"/>
<path fill-rule="evenodd" clip-rule="evenodd" d="M218.788 3.21009C219.236 2.13309 220.764 2.13309 221.212 3.21009L223.294 8.21609L228.698 8.65009C229.862 8.74309 230.334 10.1951 229.447 10.9551L225.33 14.4821L226.587 19.7551C226.858 20.8911 225.623 21.7881 224.627 21.1801L220 18.3541L215.373 21.1801C214.377 21.7881 213.142 20.8901 213.413 19.7551L214.67 14.4821L210.553 10.9551C209.666 10.1951 210.138 8.74309 211.302 8.65009L216.706 8.21609L218.788 3.21009Z" fill="#E1A100"/>
</svg>
