<svg width="50" height="50" viewBox="0 0 50 50" fill="none" xmlns="http://www.w3.org/2000/svg">
<path d="M7.03125 9.375C4.87292 9.375 3.125 11.125 3.125 13.2812V28.125H28.125V13.2812C28.125 11.1229 26.375 9.375 24.2187 9.375H7.03125ZM28.125 31.25H3.125V36.7187C3.125 38.875 4.875 40.625 7.03125 40.625H7.8125C7.8125 38.9674 8.47098 37.3777 9.64308 36.2056C10.8152 35.0335 12.4049 34.375 14.0625 34.375C15.7201 34.375 17.3098 35.0335 18.4819 36.2056C19.654 37.3777 20.3125 38.9674 20.3125 40.625H26.5625C26.9769 40.625 27.3743 40.4604 27.6674 40.1674C27.9604 39.8743 28.125 39.4769 28.125 39.0625V31.25Z" fill="#E1A100"/>
<path d="M17.1875 40.625C17.1875 39.7962 16.8583 39.0014 16.2722 38.4153C15.6862 37.8293 14.8913 37.5 14.0625 37.5C13.2337 37.5 12.4388 37.8293 11.8528 38.4153C11.2667 39.0014 10.9375 39.7962 10.9375 40.625C10.9375 41.4538 11.2667 42.2487 11.8528 42.8347C12.4388 43.4208 13.2337 43.75 14.0625 43.75C14.8913 43.75 15.6862 43.4208 16.2722 42.8347C16.8583 42.2487 17.1875 41.4538 17.1875 40.625ZM32.8125 14.0625C32.3981 14.0625 32.0007 14.2272 31.7076 14.5202C31.4146 14.8132 31.25 15.2106 31.25 15.625V39.0625C31.25 39.2438 31.2812 39.4167 31.3375 39.5792C31.5972 38.0399 32.4234 36.6536 33.6538 35.6928C34.8841 34.7321 36.4294 34.2665 37.9857 34.3877C39.542 34.5089 40.9966 35.2081 42.0634 36.3477C43.1301 37.4874 43.7318 38.985 43.75 40.5459C45.5271 40.1813 46.9208 38.598 46.8 36.623C46.334 28.9945 43.6296 21.6728 39.025 15.573C38.6663 15.1013 38.203 14.7194 37.6715 14.4572C37.1401 14.1951 36.5551 14.06 35.9625 14.0625H32.8125Z" fill="#E1A100"/>
<path d="M40.625 40.625C40.625 39.7962 40.2958 39.0013 39.7097 38.4153C39.1237 37.8292 38.3288 37.5 37.5 37.5C36.6712 37.5 35.8763 37.8292 35.2903 38.4153C34.7042 39.0013 34.375 39.7962 34.375 40.625C34.375 41.4538 34.7042 42.2487 35.2903 42.8347C35.8763 43.4208 36.6712 43.75 37.5 43.75C38.3288 43.75 39.1237 43.4208 39.7097 42.8347C40.2958 42.2487 40.625 41.4538 40.625 40.625Z" fill="#E1A100"/>
</svg>
